<svg xmlns="http://www.w3.org/2000/svg" width="320" height="130" viewBox="0 0 320 130"><defs><style>.cls-1 {fill: #77cc25;} .cls-1, .cls-2 {fill-rule: evenodd;} .cls-2 {fill: currentColor;}</style></defs><path id="creeation-logo-symbol" class="cls-1" d="M106.619,21.12A60.133,60.133,0,0,0,64.483,3.927C31.022,3.927,3.9,31.27,3.9,65s27.126,61.073,60.587,61.073a60.135,60.135,0,0,0,42.136-17.193l2.755,2.777A64,64,0,0,1,64.483,130C28.87,130,0,100.9,0,65S28.87,0,64.483,0a64,64,0,0,1,44.891,18.343ZM64.4,7.316a56.924,56.924,0,0,1,39.831,16.213l-8.452,8.52C85.531,25.07,71.985,20.823,57.13,20.823c-15.913,0-30.323,4.874-40.785,12.759A57.158,57.158,0,0,1,64.4,7.316ZM29.592,38.83C25.064,45.9,22.3,55.314,22.3,65.651a50.475,50.475,0,0,0,6.841,26.086A28.326,28.326,0,0,1,29.592,38.83ZM15.631,95.3c10.516,8.21,25.217,13.318,41.5,13.318,14.694,0,28.107-4.157,38.313-11l8.787,8.858A57.079,57.079,0,0,1,15.631,95.3Z"/><path id="creeation-logo-text" class="cls-2" d="M314.968,84.448h-9.149L299.873,65V84.448H288.894v-38.9h14.181L309.021,65V45.552H320v38.9h-5.032Zm-46.431.76c-12.666,0-18.525-10.707-18.525-20.208s5.859-20.218,18.525-20.218S286.607,55.5,286.607,65,281.2,85.208,268.537,85.208Zm-0.229-31.825c-5.175,0-7.319,4.8-7.319,11.612s2.144,11.612,7.319,11.612,7.319-4.8,7.319-11.612S273.484,53.383,268.308,53.383Zm-31.561-7.831h10.978v38.9H236.747v-38.9Zm-14.181,38.9H211.588L211.58,54.2H199.694V45.552h34.765V54.2H222.552Zm-26.989,0L193.341,75.8H182.718l-2.236,8.644H169.046l11.893-38.9H195.12l11.893,38.9H195.577ZM188.03,55.276l-3.075,11.885h6.15ZM145.717,84.448h-5.49v-38.9h27.9V54.2H151.206v6.051h14.638V68.89H151.206V75.8h17.84v8.644H145.717Zm-30.191,0h-5.489v-38.9h27.9V54.2H121.015v6.051h14.638V68.89H121.015V75.8h17.84v8.644H115.526Zm-25.2-12.965H86.707V84.448H75.729v-38.9h18.3c7.58,0,13.723,5.84,13.723,12.965a12.818,12.818,0,0,1-6.263,10.872l8.551,15.059H97.686Zm1.41-17.67H86.7v9.462h5.032A4.74,4.74,0,1,0,91.733,53.813ZM60.176,76.669a8.21,8.21,0,0,0,6.878-3.009l6.7,6.332a19.37,19.37,0,0,1-13.581,5.321c-12.666,0-19.67-9.5-19.67-20.313s7-20.312,19.67-20.312a19.371,19.371,0,0,1,13.581,5.321l-6.714,6.343a8.24,8.24,0,0,0-6.873-2.969c-5.175,0-8.691,3.8-8.691,11.612S55,76.669,60.176,76.669Z"/></svg>
