<svg viewBox="0 0 226 211.166" xmlns="http://www.w3.org/2000/svg" xmlns:bx="https://boxy-svg.com">
  <defs>
    <bx:grid x="-100" y="-100" width="1" height="1"></bx:grid>
  </defs>
  <g transform="matrix(0.502222, 0, 0, 0.50222, -56.347496, 45.095741)" style="">
    <title>CREEATION-Logo</title>
    <g style="" transform="matrix(0.6, 0, 0, 0.6, 194.447418, -89.79274)">
      <title>C-Symbol</title>
      <path style="fill: rgb(216, 216, 216); pointer-events: none; visibility: hidden;"
        transform="matrix(2.9036, 0, 0, 2.9036, -1765.098511, -780.777893)"
        d="M 768.564787266 398.05 A 86.1 86.1 0 1 1 768.564787266 311.95 L 738.773513376 329.15 A 51.7 51.7 0 1 0 738.773513376 380.85 Z"
        bx:shape="pie 694 355 51.7 86.1 120 60 1@0bc2fea2" bx:origin="0.499998 0.5">
        <title>The Cake is a Pie</title>
      </path>
      <g transform="matrix(1, 0, 0, 1, 0.000027, -0.000047)" style="">
        <title>C</title>
        <g>
          <title>Outer Rings</title>
          <path
            d="M 254.8 0 C 407.2 0 475 125 475 125 L 386.8 175 C 330.7 75 152.3 50 33.4 125 C 33.4 125 101.3 0 254.8 0 Z">
            <title>Top</title>
          </path>
          <path
            d="M 254.8 500 C 407.2 500 475 375 475 375 L 386.8 325 C 330.7 425 152.3 450 33.4 375 C 33.4 375 101.3 500 254.8 500 Z">
            <title>Bottom</title>
          </path>
        </g>
        <path d="M 150 375 C -25 350 -25 150 150 125 C 75 200 75 300 150 375 Z">
          <title>Inner</title>
        </path>
      </g>
    </g>
    <g transform="matrix(1.610034, 0, 0, 1.610034, -288.911987, -13.964349)" style="">
      <title>CREEATION</title>
      <path id="creeation-logo-text" class="cls-2"
        d="M 523.596 212.9 L 514.447 212.9 L 508.501 193.452 L 508.501 212.9 L 497.522 212.9 L 497.522 174 L 511.703 174 L 517.649 193.452 L 517.649 174.004 L 528.628 174.004 L 528.628 212.904 L 523.596 212.904 Z M 477.165 213.66 C 464.499 213.66 458.64 202.953 458.64 193.452 C 458.64 183.951 464.499 173.234 477.165 173.234 C 489.831 173.234 495.235 183.952 495.235 193.452 C 495.235 202.952 489.828 213.66 477.165 213.66 Z M 476.936 181.835 C 471.761 181.835 469.617 186.635 469.617 193.447 C 469.617 200.259 471.761 205.059 476.936 205.059 C 482.111 205.059 484.255 200.259 484.255 193.447 C 484.255 186.635 482.112 181.835 476.936 181.835 Z M 445.375 174.004 L 456.353 174.004 L 456.353 212.904 L 445.375 212.904 L 445.375 174.004 Z M 431.194 212.904 L 420.216 212.904 L 420.208 182.652 L 408.322 182.652 L 408.322 174.004 L 443.087 174.004 L 443.087 182.652 L 431.18 182.652 Z M 404.205 212.904 L 401.969 204.252 L 391.346 204.252 L 389.11 212.896 L 377.674 212.896 L 389.567 173.996 L 403.748 173.996 L 415.641 212.896 L 404.205 212.896 Z M 396.658 183.728 L 393.583 195.613 L 399.733 195.613 Z M 354.345 212.9 L 348.855 212.9 L 348.855 174 L 376.755 174 L 376.755 182.652 L 359.834 182.652 L 359.834 188.703 L 374.472 188.703 L 374.472 197.342 L 359.834 197.342 L 359.834 204.252 L 377.674 204.252 L 377.674 212.896 L 354.345 212.896 Z M 324.154 212.9 L 318.665 212.9 L 318.665 174 L 346.565 174 L 346.565 182.652 L 329.643 182.652 L 329.643 188.703 L 344.281 188.703 L 344.281 197.342 L 329.643 197.342 L 329.643 204.252 L 347.483 204.252 L 347.483 212.896 L 324.154 212.896 Z M 298.954 199.935 L 295.335 199.935 L 295.335 212.9 L 284.357 212.9 L 284.357 174 L 302.657 174 C 310.237 174 316.38 179.84 316.38 186.965 C 316.33 191.433 313.957 195.553 310.117 197.837 L 318.668 212.896 L 306.314 212.896 Z M 300.364 182.265 L 295.328 182.265 L 295.328 191.727 L 300.36 191.727 C 304.002 191.952 306.522 188.151 304.896 184.884 C 304.047 183.18 302.261 182.148 300.361 182.265 Z M 268.804 205.121 C 271.448 205.287 274.009 204.166 275.682 202.112 L 282.382 208.444 C 278.721 211.92 273.848 213.829 268.801 213.765 C 256.135 213.765 249.131 204.265 249.131 193.452 C 249.131 182.639 256.131 173.14 268.801 173.14 C 273.848 173.077 278.721 174.986 282.382 178.461 L 275.668 184.804 C 273.985 182.771 271.429 181.667 268.795 181.835 C 263.62 181.835 260.104 185.635 260.104 193.447 C 260.104 201.259 263.628 205.121 268.804 205.121 Z"
        style="fill-rule: evenodd;"></path>
    </g>
  </g>
</svg>
